<svg xmlns="http://www.w3.org/2000/svg" xmlns:xlink="http://www.w3.org/1999/xlink" version="1.1" x="0px" y="0px" viewBox="0 0 100 125" enable-background="new 0 0 100 100" fill="#295a9d" xml:space="preserve">
    <path d="M91.6,12.9H9.4c-3.4,0-6.1,2.8-6.1,6.1v60c0,3.4,2.8,6.1,6.1,6.1h82.2c3.4,0,6.1-2.8,6.1-6.1V19  C97.7,15.6,95,12.9,91.6,12.9z M9.4,16.2h82.2c1.5,0,2.8,1.3,2.8,2.8v7.1H6.6V19C6.6,17.5,7.9,16.2,9.4,16.2z M91.6,81.8H9.4  c-1.5,0-2.8-1.3-2.8-2.8V29.5h87.8V79C94.4,80.5,93.1,81.8,91.6,81.8z" />
    <circle cx="68.9" cy="21.1" r="2.1" />
    <circle cx="77.5" cy="21.1" r="2.1" />
    <circle cx="86" cy="21.1" r="2.1" />
    <path d="M22.2,63.9c-0.3,0-0.5-0.1-0.8-0.2l-9.6-6.9c-0.3-0.2-0.5-0.6-0.5-1c0-0.4,0.2-0.8,0.5-1.1l9.6-7.4c0.6-0.4,1.4-0.3,1.8,0.2  c0.4,0.6,0.3,1.4-0.2,1.8l-8.2,6.4l8.1,5.9c0.6,0.4,0.7,1.2,0.3,1.8C23,63.7,22.6,63.9,22.2,63.9z" />
    <path d="M43.7,65.6c-0.4,0-0.8-0.2-1.1-0.5c-0.4-0.6-0.3-1.4,0.3-1.8l10.4-7.5l-10.4-8.1c-0.6-0.4-0.7-1.3-0.2-1.8  c0.4-0.6,1.3-0.7,1.8-0.2l11.8,9.2c0.3,0.3,0.5,0.6,0.5,1.1c0,0.4-0.2,0.8-0.5,1l-11.8,8.5C44.3,65.5,44,65.6,43.7,65.6z" />
    <path d="M27.2,69.6c-0.2,0-0.3,0-0.5-0.1c-0.7-0.3-1-1.1-0.7-1.7l10.9-25.9c0.3-0.7,1.1-1,1.7-0.7c0.7,0.3,1,1.1,0.7,1.7L28.4,68.8  C28.2,69.3,27.7,69.6,27.2,69.6z" />
    <path d="M28.7,22.7H13c-0.9,0-1.7-0.7-1.7-1.7s0.7-1.7,1.7-1.7h15.7c0.9,0,1.7,0.7,1.7,1.7S29.7,22.7,28.7,22.7z" />
    <rect x="75.4" y="40.9" width="12.7" height="2" />
    <rect x="66.9" y="40.8" width="6.5" height="2.1" />
    <rect x="66.9" y="46.2" width="12.7" height="2" />
    <rect x="81.5" y="46.1" width="6.5" height="2.1" />
    <rect x="75.4" y="62.5" width="12.7" height="2" />
    <rect x="66.9" y="62.5" width="6.5" height="2.1" />
    <rect x="66.9" y="57.2" width="12.7" height="2" />
    <rect x="81.5" y="57.2" width="6.5" height="2.1" />
    <rect x="66.9" y="51.7" width="9.2" height="2" />
    <rect x="78.8" y="51.7" width="9.2" height="2" />
    <rect x="66.9" y="68" width="9.2" height="2" />
    <rect x="78.8" y="68" width="9.2" height="2" />
</svg>
